<svg width="27" height="26" viewBox="0 0 27 26" fill="none" xmlns="http://www.w3.org/2000/svg">
<g clip-path="url(#clip0_23_139)">
<mask id="mask0_23_139" style="mask-type:luminance" maskUnits="userSpaceOnUse" x="0" y="0" width="27" height="26">
<path d="M13.4396 0H13C5.8203 0 0 5.8203 0 13C0 20.1797 5.8203 26 13 26H13.4396C20.6193 26 26.4396 20.1797 26.4396 13C26.4396 5.8203 20.6193 0 13.4396 0Z" fill="white"/>
</mask>
<g mask="url(#mask0_23_139)">
<path d="M13.4396 0H13C5.8203 0 0 5.8203 0 13C0 20.1797 5.8203 26 13 26H13.4396C20.6193 26 26.4396 20.1797 26.4396 13C26.4396 5.8203 20.6193 0 13.4396 0Z" fill="#064562"/>
<path d="M13.2198 0C5.9184 0 0 5.81999 0 13C0 20.18 5.9184 26 13.2198 26C20.5212 26 26.4396 20.18 26.4396 13C26.4396 5.81999 20.5212 0 13.2198 0ZM13.2198 23.9688C7.05933 23.9688 2.0656 19.0581 2.0656 13C2.0656 6.94195 7.05933 2.03125 13.2198 2.03125C19.3803 2.03125 24.374 6.94195 24.374 13C24.374 19.0581 19.3803 23.9688 13.2198 23.9688Z" fill="#064562"/>
<path d="M15.7663 7.55057C15.4435 7.23318 14.9207 7.23318 14.5979 7.55057L9.6405 12.4256C9.31775 12.743 9.31775 13.2571 9.6405 13.5745L14.5979 18.4495C14.7593 18.6082 14.9707 18.6875 15.1821 18.6875C15.3935 18.6875 15.605 18.6082 15.7663 18.4494C16.089 18.1321 16.089 17.6179 15.7663 17.3005L11.3931 13L15.7663 8.69944C16.089 8.38206 16.089 7.86795 15.7663 7.55057Z" fill="white"/>
</g>
</g>
<defs>
<clipPath id="clip0_23_139">
<rect width="27" height="26" fill="white"/>
</clipPath>
</defs>
</svg>
